<svg width="24" height="24" viewBox="0 0 24 24" fill="none" xmlns="http://www.w3.org/2000/svg">
<path d="M16.9501 4.99817C17.4098 4.99818 17.8652 5.08879 18.2899 5.26477C18.7146 5.44075 19.1007 5.69844 19.4257 6.02356V6.02454C19.7508 6.34956 20.0094 6.73553 20.1854 7.16028C20.3614 7.585 20.452 8.0404 20.452 8.50012C20.452 8.95984 20.3614 9.41526 20.1854 9.83997C20.0314 10.2116 19.8144 10.5533 19.5448 10.8507L19.4257 10.9757L11.9999 18.4015L4.5741 10.9757C3.91757 10.3191 3.54874 9.42863 3.54871 8.50012C3.54871 7.57163 3.91762 6.68113 4.5741 6.02454C5.23064 5.36799 6.1212 4.99923 7.04968 4.99915C7.97828 4.99915 8.86963 5.36792 9.52625 6.02454L10.5858 7.08411C11.3668 7.86513 12.6329 7.86507 13.4139 7.08411L14.4745 6.02454V6.02356C14.7995 5.69844 15.1855 5.44074 15.6102 5.26477C16.035 5.08878 16.4903 4.99817 16.9501 4.99817Z" fill="#1E1E1E" stroke="#1E1E1E" stroke-width="4" stroke-linecap="round" stroke-linejoin="round"/>
</svg>
