<svg width="24" height="24" viewBox="0 0 24 24" fill="none" xmlns="http://www.w3.org/2000/svg">
<mask id="mask0_26_20596" style="mask-type:alpha" maskUnits="userSpaceOnUse" x="1" y="2" width="20" height="20">
<path d="M15 19C13.8954 19 13 19.8954 13 21L13 22L19 22C20.1046 22 21 21.1046 21 20L21 4C21 2.89543 20.1046 2 19 2L15 2C13.8954 2 13 2.89543 13 4L13 5L18 5L18 19L15 19Z" fill="url(#paint0_linear_26_20596)"/>
<path d="M8 5.5V9H1L1 11C1 13.2091 2.79086 15 5 15H8V18.5L15 12L8 5.5Z" fill="black"/>
</mask>
<g mask="url(#mask0_26_20596)">
<path d="M0 0H24V24H0V0Z" fill="black" fill-opacity="0.4"/>
</g>
<defs>
<linearGradient id="paint0_linear_26_20596" x1="17.5" y1="3.11111" x2="17.5" y2="20.8889" gradientUnits="userSpaceOnUse">
<stop/>
<stop offset="1" stop-opacity="0.75"/>
</linearGradient>
</defs>
</svg>
